<?xml version="1.0" encoding="UTF-8"?>
<svg width="172px" height="172px" viewBox="0 0 172 172" version="1.1" xmlns="http://www.w3.org/2000/svg" xmlns:xlink="http://www.w3.org/1999/xlink">
    <!-- Generator: Sketch 51.2 (57519) - http://www.bohemiancoding.com/sketch -->
    <title>animation Placeholder Copy 2</title>
    <desc>Created with Sketch.</desc>
    <defs>
        <polygon id="path-1" points="36.9360656 0.265122302 0 0.265122302 0 111 36.9360656 111 73.8721312 111 73.8721312 0.265122302"></polygon>
        <polygon id="path-3" points="36.9360656 0.265122302 0 0.265122302 0 111 36.9360656 111 73.8721312 111 73.8721312 0.265122302"></polygon>
        <polygon id="path-5" points="36.9360656 0.265122302 0 0.265122302 0 111 36.9360656 111 73.8721312 111 73.8721312 0.265122302"></polygon>
        <polygon id="path-7" points="0 111 73.8721577 111 73.8721577 0.265122302 0 0.265122302"></polygon>
    </defs>
    <g id="animation-Placeholder-Copy-2" stroke="none" stroke-width="1" fill="none" fill-rule="evenodd">
        <g id="locations-animation">
            <text id="logo" font-family="SFUIText-Regular, SF UI Text" font-size="18" font-weight="normal" fill="#FFFFFF">
                <tspan x="70" y="92">logo</tspan>
            </text>
            <circle id="Oval-3" fill="#1EB9B9" cx="86" cy="86" r="86"></circle>
            <g id="Page-1" transform="translate(49.000000, 31.000000)">
                <g id="Group-16">
                    <g id="Group-3">
                        <mask id="mask-2" fill="white">
                            <use xlink:href="#path-1"></use>
                        </mask>
                        <g id="Clip-2"></g>
                        <path d="M67.2609341,111 L6.61117061,111 C2.95997348,111 -2.65232975e-05,108.029353 -2.65232975e-05,104.364755 L-2.65232975e-05,6.90010072 C-2.65232975e-05,3.23576978 2.95997348,0.265122302 6.61117061,0.265122302 L67.2609341,0.265122302 C70.9121312,0.265122302 73.8721312,3.23576978 73.8721312,6.90010072 L73.8721312,104.364755 C73.8721312,108.029353 70.9121312,111 67.2609341,111" id="Fill-1" fill="#FFFFFF" mask="url(#mask-2)"></path>
                    </g>
                    <g id="Group-6">
                        <mask id="mask-4" fill="white">
                            <use xlink:href="#path-3"></use>
                        </mask>
                        <g id="Clip-5"></g>
                        <path d="M67.2609341,111 L6.61117061,111 C2.95997348,111 -2.65232975e-05,108.029353 -2.65232975e-05,104.364755 L-2.65232975e-05,6.90010072 C-2.65232975e-05,3.23576978 2.95997348,0.265122302 6.61117061,0.265122302 L67.2609341,0.265122302 C70.9121312,0.265122302 73.8721312,3.23576978 73.8721312,6.90010072 L73.8721312,104.364755 C73.8721312,108.029353 70.9121312,111 67.2609341,111" id="Fill-4" fill="#FFFFFF" mask="url(#mask-4)"></path>
                    </g>
                    <path d="M45.0256581,98.7543576 C45.0256581,103.238278 41.4039018,106.873063 36.9360523,106.873063 C32.4682029,106.873063 28.8464466,103.238278 28.8464466,98.7543576 C28.8464466,94.2704367 32.4682029,90.6356525 36.9360523,90.6356525 C41.4039018,90.6356525 45.0256581,94.2704367 45.0256581,98.7543576 Z" id="Stroke-7" stroke="#1EB9B9" stroke-width="5"></path>
                    <g id="Group-11">
                        <mask id="mask-6" fill="white">
                            <use xlink:href="#path-5"></use>
                        </mask>
                        <g id="Clip-10"></g>
                        <path d="M67.2609341,111 L6.61117061,111 C2.95997348,111 -2.65232975e-05,108.029353 -2.65232975e-05,104.364755 L-2.65232975e-05,6.90010072 C-2.65232975e-05,3.23576978 2.95997348,0.265122302 6.61117061,0.265122302 L67.2609341,0.265122302 C70.9121312,0.265122302 73.8721312,3.23576978 73.8721312,6.90010072 L73.8721312,104.364755 C73.8721312,108.029353 70.9121312,111 67.2609341,111" id="Fill-9" fill="#FFFFFF" mask="url(#mask-6)"></path>
                    </g>
                    <path d="M45.0256581,98.7543576 C45.0256581,103.238278 41.4039018,106.873063 36.9360523,106.873063 C32.4682029,106.873063 28.8464466,103.238278 28.8464466,98.7543576 C28.8464466,94.2704367 32.4682029,90.6356525 36.9360523,90.6356525 C41.4039018,90.6356525 45.0256581,94.2704367 45.0256581,98.7543576 Z" id="Stroke-12" stroke="#1EB9B9" stroke-width="2"></path>
                    <mask id="mask-8" fill="white">
                        <use xlink:href="#path-7"></use>
                    </mask>
                    <g id="Clip-15"></g>
                    <polygon id="Fill-14" fill="#1EB9B9" mask="url(#mask-8)" points="5.63858781 85.3118849 68.2335699 85.3118849 68.2335699 6.78670504 5.63858781 6.78670504"></polygon>
                </g>
                <polygon id="Fill-17" fill="#FFFFFF" points="60 73 57.2153644 69.899728 54.3748328 73 51.5904647 69.899728 48.7499331 73 45.9652975 69.899728 43.124766 73 40.3403978 69.899728 37.4998663 73 34.7152307 69.899728 31.8749666 73 29.090331 69.899728 26.2500669 73 23.4654313 69.899728 20.6248997 73 17.8402641 69.899728 15 73 15 18 17.8124499 21.3582958 20.6248997 18 23.4373496 21.3582958 26.2500669 18 29.0625167 21.3582958 31.8749666 18 34.6874164 21.3582958 37.4998663 18 40.3125836 21.3582958 43.124766 18 45.9374833 21.3582958 48.7499331 18 51.562383 21.3582958 54.3748328 18 57.1872827 21.3582958 60 18"></polygon>
                <polygon id="Fill-18" fill="#FFFFFF" points="60 73 57.2153644 69.899728 54.3748328 73 51.5904647 69.899728 48.7499331 73 45.9652975 69.899728 43.124766 73 40.3403978 69.899728 37.4998663 73 34.7152307 69.899728 31.8749666 73 29.090331 69.899728 26.2500669 73 23.4654313 69.899728 20.6248997 73 17.8402641 69.899728 15 73 15 18 17.8124499 21.3582958 20.6248997 18 23.4373496 21.3582958 26.2500669 18 29.0625167 21.3582958 31.8749666 18 34.6874164 21.3582958 37.4998663 18 40.3125836 21.3582958 43.124766 18 45.9374833 21.3582958 48.7499331 18 51.562383 21.3582958 54.3748328 18 57.1872827 21.3582958 60 18"></polygon>
                <path d="M50.206278,37 L50.206278,35.5 C52.0112108,35.2058824 53,34.0882353 53,32.7794118 C53,31.4558824 52.2466368,30.6470588 50.3789238,30.0294118 C49.044843,29.5588235 48.4955157,29.25 48.4955157,28.7647059 C48.4955157,28.3529412 48.8251121,27.9411765 49.8452915,27.9411765 C50.9753363,27.9411765 51.6973094,28.2794118 52.1053812,28.4411765 L52.5605381,26.7794118 C52.0426009,26.5441176 51.3363229,26.3382353 50.2847534,26.2941176 L50.2847534,25 L48.7466368,25 L48.7466368,26.3970588 C47.0672646,26.7058824 46.0941704,27.7205882 46.0941704,29.0147059 C46.0941704,30.4411765 47.2399103,31.1764706 48.9192825,31.7058824 C50.0807175,32.0735294 50.5829596,32.4264706 50.5829596,32.9852941 C50.5829596,33.5735294 49.970852,33.8970588 49.0762332,33.8970588 C48.0560538,33.8970588 47.1300448,33.5882353 46.470852,33.25 L46,34.9705882 C46.5964126,35.2941176 47.6165919,35.5588235 48.6681614,35.6029412 L48.6681614,37 L50.206278,37 Z" id="$" fill="#1EB9B9"></path>
                <path d="M20,33 L38,33 L20,33 Z" id="Fill-19" fill="#FFFFFF"></path>
                <polygon id="Stroke-20" fill="#1EB9B9" fill-rule="nonzero" points="20 35 38 35 38 31 20 31"></polygon>
                <path d="M20,40 L38,40 L20,40 Z" id="Fill-21" fill="#FFFFFF"></path>
                <polygon id="Stroke-22" fill="#1EB9B9" fill-rule="nonzero" points="20 42 38 42 38 38 20 38"></polygon>
                <path d="M20,47 L53,47 L20,47 Z" id="Fill-23" fill="#FFFFFF"></path>
                <polygon id="Stroke-24" fill="#1EB9B9" fill-rule="nonzero" points="20 49 53 49 53 45 20 45"></polygon>
                <path d="M20,52 L53,52 L20,52 Z" id="Fill-25" fill="#FFFFFF"></path>
                <polygon id="Stroke-26" fill="#1EB9B9" fill-rule="nonzero" points="20 54 53 54 53 50 20 50"></polygon>
                <path d="M20,59 L53,59 L20,59 Z" id="Fill-27" fill="#FFFFFF"></path>
                <polygon id="Stroke-28" fill="#1EB9B9" fill-rule="nonzero" points="20 61 53 61 53 57 20 57"></polygon>
            </g>
        </g>
    </g>
</svg>