<?xml version="1.0" encoding="UTF-8"?>
<svg width="172px" height="172px" viewBox="0 0 172 172" version="1.1" xmlns="http://www.w3.org/2000/svg" xmlns:xlink="http://www.w3.org/1999/xlink">
    <!-- Generator: Sketch 51.2 (57519) - http://www.bohemiancoding.com/sketch -->
    <title>animation Placeholder Copy</title>
    <desc>Created with Sketch.</desc>
    <defs>
        <circle id="path-1" cx="86" cy="86" r="86"></circle>
    </defs>
    <g id="animation-Placeholder-Copy" stroke="none" stroke-width="1" fill="none" fill-rule="evenodd">
        <g id="Clip-9">
            <mask id="mask-2" fill="white">
                <use xlink:href="#path-1"></use>
            </mask>
            <use id="Mask" fill="#1EB9B9" xlink:href="#path-1"></use>
            <path d="M71.969394,138.309482 L91.0541112,119.167055 L74.3617802,102.472763 L78.6330354,102.472763 C97.6996285,102.024089 114.893394,99.4765833 130.175063,94.7429203 C146.746566,89.5635945 160.835063,82.116808 172.410346,72.3935271 C183.985628,62.6341114 150.531491,7.35384169 147.232897,14.9843136 C143.95847,22.6328529 139.222028,29.1009878 133.059822,34.4549653 C126.900635,39.772808 119.385159,43.8409878 110.54058,46.6805833 C101.741311,49.5051226 91.6854354,50.9204035 80.466594,50.9204035 L71.9240836,50.9204035 L90.9423457,31.8502462 L71.7670078,12.7168529 C67.550125,8.50413383 60.6871181,8.50413383 56.4883595,12.7168529 L1.47555949,67.861617 C-2.72319913,72.0743361 -2.70507499,78.9459765 1.48462156,83.1677293 L56.6635595,138.309482 C58.273656,139.907656 60.2678721,140.900855 62.3525041,141.284583 L66.3181597,141.284583 C68.392108,140.901794 70.3725888,139.911574 71.969394,138.309482 Z" fill="#FFFFFF" mask="url(#mask-2)" transform="translate(86.584597, 75.420948) rotate(-90.000000) translate(-86.584597, -75.420948) "></path>
        </g>
    </g>
</svg>