<?xml version="1.0" encoding="UTF-8"?>
<svg width="172px" height="172px" viewBox="0 0 172 172" version="1.1" xmlns="http://www.w3.org/2000/svg" xmlns:xlink="http://www.w3.org/1999/xlink">
    <!-- Generator: Sketch 51.2 (57519) - http://www.bohemiancoding.com/sketch -->
    <title>Group</title>
    <desc>Created with Sketch.</desc>
    <defs></defs>
    <g id="Symbols" stroke="none" stroke-width="1" fill="none" fill-rule="evenodd">
        <g id="animation-Placeholder-Copy-3">
            <g id="Group">
                <circle id="Oval-3-Copy" fill="#1EB9B9" cx="86" cy="86" r="86"></circle>
                <g id="card" transform="translate(42.000000, 35.000000)" fill="#FFFFFF" fill-rule="nonzero">
                    <path d="M62.75,49 C57.9172091,49 54,52.8052888 54,57.5 C54,62.1947112 57.9172091,66 62.75,66 L89,66 L89,49 L62.75,49 Z M62.75,60.3332202 C61.1393026,60.3332202 59.8332751,59.0646775 59.8332751,57.4998303 C59.8332751,55.9349831 61.1391279,54.6664404 62.75,54.6664404 C64.3608721,54.6664404 65.6667249,55.9349831 65.6667249,57.4998303 C65.6667249,59.0646775 64.3608721,60.3332202 62.75,60.3332202 Z" id="Shape"></path>
                    <path d="M62.5625324,42.4545771 L77,42.4545771 L77,33.7272886 C77,28.9148825 73.1141735,25 68.3374849,25 L2.88756269,25 C1.29348834,25 0,26.3029861 0,27.90898 L0,86.0908457 C0,87.6968397 1.29348834,89 2.88756269,89 L68.3374849,89 C73.1141735,89 77,85.0851175 77,80.2727114 L77,71.5454229 L62.5625324,71.5454229 C54.601327,71.5454229 48.1250649,65.0207349 48.1250649,57 C48.1250649,48.9792651 54.601327,42.4545771 62.5625324,42.4545771 Z" id="Shape"></path>
                    <path d="M80.0283013,25 L80,25 C81.8859787,27.371284 83.0189273,30.3087029 83.0189273,33.5 L83.0189273,42 L89,42 L89,33.5 C89,28.8129255 84.9754801,25 80.0283013,25 Z" id="Shape"></path>
                    <path d="M83.0189273,72 L83.0189273,80.5 C83.0189273,83.6912971 81.8863369,86.628716 80,89 L80.0283013,89 C84.9754801,89 89,85.1870745 89,80.5 L89,72 L83.0189273,72 Z" id="Shape"></path>
                    <path d="M47.6143846,0.834878294 C46.4877122,-0.278292765 44.6621607,-0.278292765 43.5353154,0.834878294 L41,3.33981191 L56.8504727,19 L66,19 L47.6143846,0.834878294 Z" id="Shape"></path>
                    <path d="M30.5468353,0.835000696 C29.416034,-0.278333565 27.583966,-0.278333565 26.4529913,0.835000696 L8,19 L49,19 L30.5468353,0.835000696 Z" id="Shape"></path>
                </g>
            </g>
        </g>
    </g>
</svg>